<?xml version="1.0" encoding="utf-8"?>
<svg xmlns="http://www.w3.org/2000/svg" viewBox="0 0 26 26" width="208" height="208">
  <path d="M3 10C1.34375 10 0 11.34375 0 13C0 14.65625 1.34375 16 3 16C4.65625 16 6 14.65625 6 13C6 11.34375 4.65625 10 3 10 Z M 13 10C11.34375 10 10 11.34375 10 13C10 14.65625 11.34375 16 13 16C14.65625 16 16 14.65625 16 13C16 11.34375 14.65625 10 13 10 Z M 23 10C21.34375 10 20 11.34375 20 13C20 14.65625 21.34375 16 23 16C24.65625 16 26 14.65625 26 13C26 11.34375 24.65625 10 23 10Z" fill="#5B5B5B" />
</svg>