<?xml version="1.0" encoding="utf-8"?>
<svg xmlns="http://www.w3.org/2000/svg" viewBox="0 0 30 30" width="480" height="480">
  <path d="M21.37,4.831c-0.12-1.428-1.249-2.56-2.677-2.678C17.693,2.07,16.201,2,15,2s-2.693,0.07-3.693,0.153 C9.879,2.272,8.749,3.404,8.63,4.831C8.382,7.803,8,12.737,8,15c0,2.219,0.367,7.189,0.616,10.301C8.737,26.826,10.011,28,11.541,28 h6.917c1.53,0,2.804-1.174,2.926-2.699C21.633,22.189,22,17.219,22,15C22,12.737,21.618,7.803,21.37,4.831z M11,25.933 c-0.552-0.088-1-0.457-1-0.825c0-0.368,0.448-0.596,1-0.508c0.552,0.088,1,0.457,1,0.825C12,25.793,11.552,26.02,11,25.933z M11,22.933c-0.552-0.088-1-0.457-1-0.825c0-0.368,0.448-0.596,1-0.508c0.552,0.088,1,0.457,1,0.825 C12,22.793,11.552,23.02,11,22.933z M11,19.481c-0.552-0.088-1-0.457-1-0.825c0-0.368,0.448-0.596,1-0.508 c0.552,0.088,1,0.457,1,0.825S11.552,19.569,11,19.481z M15,26c-0.521,0-0.944-0.282-0.944-0.629s0.422-0.629,0.944-0.629 s0.944,0.282,0.944,0.629S15.521,26,15,26z M15,23c-0.521,0-0.944-0.282-0.944-0.629s0.422-0.629,0.944-0.629 s0.944,0.282,0.944,0.629S15.521,23,15,23z M15,20c-0.521,0-0.944-0.282-0.944-0.629s0.422-0.629,0.944-0.629 s0.944,0.282,0.944,0.629S15.521,20,15,20z M13.6,16c-2.082,0-3.73-1.762-3.592-3.84l0.478-6.816 c0.039-0.562,0.463-1.022,1.022-1.103C12.277,4.129,13.862,4,15,4s2.723,0.129,3.492,0.241c0.558,0.081,0.982,0.541,1.022,1.103 l0.478,6.816C20.13,14.238,18.482,16,16.4,16H13.6z M19,25.933c-0.552,0.087-1-0.14-1-0.508c0-0.368,0.448-0.737,1-0.825 c0.552-0.088,1,0.14,1,0.508C20,25.476,19.552,25.845,19,25.933z M19,22.933c-0.552,0.087-1-0.14-1-0.508 c0-0.368,0.448-0.737,1-0.825c0.552-0.088,1,0.14,1,0.508C20,22.476,19.552,22.845,19,22.933z M19,19.481 c-0.552,0.087-1-0.14-1-0.508s0.448-0.737,1-0.825c0.552-0.088,1,0.14,1,0.508C20,19.025,19.552,19.394,19,19.481z" fill="#5B5B5B" />
</svg>