<?xml version="1.0" encoding="utf-8"?>
<svg xmlns="http://www.w3.org/2000/svg" viewBox="0 0 32 32" width="512" height="512">
  <path d="M10 4C9.476563 4 8.941406 4.183594 8.5625 4.5625C8.183594 4.941406 8 5.476563 8 6L8 26C8 26.523438 8.183594 27.058594 8.5625 27.4375C8.941406 27.816406 9.476563 28 10 28L22 28C22.523438 28 23.058594 27.816406 23.4375 27.4375C23.816406 27.058594 24 26.523438 24 26L24 6C24 5.476563 23.816406 4.941406 23.4375 4.5625C23.058594 4.183594 22.523438 4 22 4 Z M 10 6L22 6L22 26L10 26 Z M 16 7C15.449219 7 15 7.449219 15 8C15 8.550781 15.449219 9 16 9C16.550781 9 17 8.550781 17 8C17 7.449219 16.550781 7 16 7 Z M 14 23L14 25L18 25L18 23Z" fill="#5B5B5B" />
</svg>